<?xml version="1.0" standalone="no"?>
<!DOCTYPE svg PUBLIC "-//W3C//DTD SVG 20010904//EN"
 "http://www.w3.org/TR/2001/REC-SVG-20010904/DTD/svg10.dtd">
<svg version="1.0" xmlns="http://www.w3.org/2000/svg"
 width="300.000000pt" height="300.000000pt" viewBox="0 0 300.000000 300.000000"
 preserveAspectRatio="xMidYMid meet">
<metadata>
Created by potrace 1.14, written by Peter Selinger 2001-2017
</metadata>
<g transform="translate(0.000000,300.000000) scale(0.100000,-0.100000)"
fill="#000000" stroke="none">
<path d="M1268 2917 c-80 -28 -162 -82 -216 -143 l-39 -43 -64 20 c-95 30
-169 29 -216 -4 -61 -43 -86 -88 -86 -157 0 -97 52 -156 171 -195 57 -18 63
-32 38 -88 -8 -18 -16 -41 -19 -52 -3 -11 -26 -78 -52 -150 -26 -71 -53 -148
-60 -170 -13 -40 -65 -188 -105 -298 -11 -31 -23 -81 -27 -110 -9 -67 -9 -253
-1 -292 25 -118 22 -129 -25 -103 -32 17 -79 17 -110 -1 -37 -21 -71 -85 -63
-120 6 -23 53 -147 91 -236 7 -16 23 -55 35 -85 62 -156 92 -190 164 -190 27
0 46 9 74 34 33 30 38 41 38 78 0 38 3 44 27 52 45 16 49 1 29 -109 -9 -55
-17 -119 -16 -141 3 -140 189 -166 236 -33 3 8 36 31 73 51 l66 35 72 -24
c167 -54 375 -67 530 -32 78 19 94 23 162 50 17 7 32 13 35 14 22 6 117 62
170 101 155 114 250 249 324 461 18 54 43 125 55 158 12 33 24 71 27 84 3 13
11 36 19 51 19 37 22 90 6 128 -18 44 -65 63 -138 57 -204 -18 -412 1 -658 57
-71 17 -142 33 -157 35 -38 7 -49 24 -39 59 5 16 37 108 71 204 160 451 177
507 179 583 4 132 -34 233 -121 332 -87 96 -187 143 -323 151 -77 4 -100 1
-157 -19z"/>
</g>
</svg>
